{"title":"Die.kommenden.Tage.GERMAN.BDRip.AC3.XviD-EMPiRE [NO-RAR]","uid":6708085,"size":1258776130,"categoryP":"video","categoryS":"movies","magnet":"?xt=urn:btih:c6d2cd00e5616a921d4a9f0a29ae2417adb6549d&amp;dn=Die.kommenden.Tage.GERMAN.BDRip.AC3.XviD-EMPiRE+%5BNO-RAR%5D&amp;tr=udp%3A%2F%2Ftracker.openbittorrent.com%3A80&amp;tr=udp%3A%2F%2Fopen.demonii.com%3A1337&amp;tr=udp%3A%2F%2Ftracker.coppersurfer.tk%3A6969&amp;tr=udp%3A%2F%2Fexodus.desync.com%3A6969","seeders":1,"leechers":0,"uploader":"pipogarote","files":3,"time":1317252647,"description":"Movie - Drama / Sci-fi\n\nTHE COMING DAYS is the story of an upper-middle-class Berlin family on their personal journey from the present into a near future, a journey into a time of uncertainty and major changes. Due to a rare antibody reaction, Laura Kuper has to choose between her desire to have children and Hans the love of her life. Her sister Cecilia is driven into the abyss of a newly emerging terrorist movement by her unrequited love to Konstantin. And then there is Philip, the youngest child of the family, pulled into a hopeless war for Germany, over the few remaining oilfields of Asia.\n\nA destabilized family tackles a destabilized world, entering their future with all their hopes and fears. Essentially, a family drama set to the backdrop of world collapse.\n &lt;a href=&quot;\nhttp://www.imdb.com/title/tt1545985/&quot; rel=&quot;nofollow&quot; target=&quot;_NEW&quot;&gt;\nhttp://www.imdb.com/title/tt1545985/&lt;/a&gt;\n\nLanguage: German / French\nSubtitles: English / Spanish\n\n****NO RAR Release****\n\n********************************************************************\n\nFormat : AVI\nFormat/Info : Audio Video Interleave\nFile size : 1.17 GiB\nDuration : 2h 9mn\nOverall bit rate : 1 294 Kbps\nWriting application : VirtualDubMod 1.5.10.2 (build 2540/release)\nWriting library : VirtualDubMod build 2540/release\n\nVideo\nFormat : MPEG-4 Visual\nFormat profile : Streaming Video@L1\nFormat settings, BVOP : Yes\nFormat settings, QPel : No\nFormat settings, GMC : No warppoints\nFormat settings, Matrix : Default (MPEG)\nCodec ID : XVID\nCodec ID/Hint : XviD\nDuration : 2h 9mn\nBit rate : 836 Kbps\nWidth : 720 pixels\nHeight : 304 pixels\nDisplay aspect ratio : 2.35\nFrame rate : 23.976 fps\nResolution : 24 bits\nColorimetry : 4:2:0\nScan type : Progressive\nBits/(Pixel*Frame) : 0.159\nStream size : 776 MiB (65%)\nWriting library : XviD 1.2.1 (UTC 2008-12-04)\n\nAudio\nFormat : AC-3\nFormat/Info : Audio Coding 3\nCodec ID : 2000\nDuration : 2h 9mn\nBit rate mode : Constant\nBit rate : 448 Kbps\nChannel(s) : 6 channels\nChannel positions : Front: L C R, Surround: L R, LFE\nSampling rate : 48.0 KHz\nStream size : 416 MiB (35%)\nAlignment : Split accross interleaves\nInterleave, duration : 42 ms (1.00 video frame)\nInterleave, preload duration : 500 ms\n\n*******************************************************************\n\nSeed at least 1:1 or die bad seeder! :)","torrent":{"xt":"urn:btih:c6d2cd00e5616a921d4a9f0a29ae2417adb6549d","amp;dn":"Die.kommenden.Tage.GERMAN.BDRip.AC3.XviD-EMPiRE+%5BNO-RAR%5D","amp;tr":["udp%3A%2F%2Ftracker.openbittorrent.com%3A80","udp%3A%2F%2Fopen.demonii.com%3A1337","udp%3A%2F%2Ftracker.coppersurfer.tk%3A6969","udp%3A%2F%2Fexodus.desync.com%3A6969"],"infoHash":"c6d2cd00e5616a921d4a9f0a29ae2417adb6549d","infoHashBuffer":{"type":"Buffer","data":[198,210,205,0,229,97,106,146,29,74,159,10,41,174,36,23,173,182,84,157]},"announce":[],"urlList":[]}}